<svg width="20" height="20" viewBox="0 0 20 20" fill="none" xmlns="http://www.w3.org/2000/svg">
<path d="M15.0001 5.83333H11.6667V5H15.0001V5.83333ZM7.16675 9.41667C7.75008 9.16667 8.08341 8.66667 8.08341 7.91667C8.08341 6.58333 7.08341 5.83333 5.33341 5.83333H1.66675V13.25H5.50008C7.33341 13.25 8.50008 12.5 8.50008 11C8.50008 10.0833 8.08342 9.5 7.16675 9.25V9.41667ZM3.41675 6.91667H5.16675C5.91675 6.91667 6.33341 7.16667 6.33341 7.75C6.33341 8.33333 5.91675 8.58333 5.16675 8.58333H3.41675V6.91667ZM5.41675 11.9167H3.41675V10H5.50008C6.33341 10 6.83341 10.3333 6.83341 11C6.83341 11.6667 6.33341 11.9167 5.41675 11.9167ZM18.3334 10.1667C18.3334 8.5 17.2501 7.41667 15.5001 7.41667C13.6667 7.41667 12.4167 8.58333 12.4167 10.4167C12.4167 12.3333 13.6667 13.4167 15.6667 13.4167C16.7501 13.4167 17.7501 13.1667 18.4167 12.8333L18.0834 11.6667C17.4167 11.9167 16.6667 12.0833 15.9167 12.0833C15.0001 12.0833 14.3334 11.75 14.1667 10.9167H18.3334C18.4167 10.75 18.4167 10.4167 18.4167 10.1667H18.3334ZM14.0001 9.58333C14.0834 8.83333 14.6667 8.41667 15.4167 8.41667C16.2501 8.41667 16.6667 8.83333 16.7501 9.58333H14.0001Z" fill="#666666"/>
</svg>
