<svg width="20" height="20" viewBox="0 0 20 20" fill="none" xmlns="http://www.w3.org/2000/svg">
<path d="M10.0001 1.66699C8.90568 1.66705 7.822 1.88266 6.81093 2.30152C5.79985 2.72038 4.88117 3.33429 4.10735 4.10819C3.33353 4.88208 2.71972 5.80082 2.30096 6.81194C1.8822 7.82306 1.66669 8.90676 1.66675 10.0012C1.6668 11.0956 1.88242 12.1792 2.30128 13.1903C2.72014 14.2014 3.33404 15.1201 4.10794 15.8939C4.88184 16.6677 5.80058 17.2815 6.81169 17.7003C7.82281 18.119 8.90651 18.3345 10.0009 18.3345C12.2112 18.3344 14.3308 17.4563 15.8936 15.8933C17.4564 14.3303 18.3344 12.2106 18.3342 10.0003C18.3341 7.79008 17.456 5.6704 15.8931 4.1076C14.3301 2.54479 12.2103 1.66688 10.0001 1.66699ZM15.7501 9.25033C14.3659 9.79368 12.8386 9.85242 11.4167 9.41699C11.1176 8.76082 10.7838 8.12103 10.4167 7.50033C12.3092 6.97646 14.1085 6.16114 15.7501 5.08366C16.1953 6.43687 16.1953 7.89711 15.7501 9.25033ZM10.0001 3.33366C11.4047 3.3273 12.7755 3.76478 13.9167 4.58366C12.405 5.58504 10.7461 6.34418 9.00008 6.83366C8.49288 5.91545 7.93652 5.02526 7.33341 4.16699C8.15347 3.70399 9.06231 3.41997 10.0001 3.33366ZM6.00008 4.83366C6.63361 5.68857 7.21789 6.57891 7.75008 7.50033C5.83342 8.00033 3.58341 8.16699 2.16675 8.16699C2.95453 6.59352 4.33246 5.39532 6.00008 4.83366ZM3.41675 10.0003C5.16675 10.0003 7.58341 9.83366 9.58341 9.25033C9.83341 9.75033 10.0834 10.3337 10.3334 10.917C7.75008 11.7503 5.58341 13.5837 4.50008 15.3337C3.95455 14.5709 3.57609 13.7016 3.38941 12.7826C3.20274 11.8636 3.21205 10.9155 3.41675 10.0003ZM6.25008 15.8337C6.78444 14.8925 7.50235 14.0683 8.36123 13.4098C9.22012 12.7513 10.2025 12.272 11.2501 12.0003C11.6667 13.167 11.9167 14.417 12.0834 15.917C11.1684 16.3462 10.1677 16.5617 9.15715 16.5473C8.14656 16.5328 7.15248 16.2888 6.25008 15.8337ZM13.0001 15.417C12.8334 14.0837 12.5834 12.917 12.2501 11.917C13.5001 11.7503 14.8334 11.917 16.4167 12.3337C15.68 13.7344 14.4689 14.8274 13.0001 15.417Z" fill="#666666"/>
</svg>
