<svg width="20" height="20" viewBox="0 0 20 20" fill="none" xmlns="http://www.w3.org/2000/svg">
<path d="M4.15006 2.91634C4.15006 4.06634 3.21673 4.99967 2.08339 4.99967C0.950061 4.99967 6.10352e-05 4.06634 6.10352e-05 2.91634C6.10352e-05 1.76634 0.933394 0.833008 2.08339 0.833008C3.23339 0.833008 4.15006 1.76634 4.15006 2.91634ZM0.416728 6.66634H3.75006V19.1663H0.416728V6.66634ZM6.66673 6.66634H9.83339V8.41634H9.91673C10.5834 7.41634 11.7501 6.66634 13.5834 6.66634C17.1667 6.66634 17.5001 8.83301 17.5001 11.9163V19.1663H14.1667V12.9163C14.1667 11.4163 14.1667 9.58301 12.1667 9.58301C10.1667 9.58301 9.83339 11.1663 9.83339 12.833V19.1663H6.66673V6.66634Z" fill="#666666"/>
</svg>
