<svg width="110" height="51" viewBox="0 0 110 51" fill="none" xmlns="http://www.w3.org/2000/svg">
<circle cx="74.5" cy="25.5" r="25" stroke="white"/>
<circle cx="37.5" cy="25.5" r="25" stroke="white"/>
<path d="M11.7323 34.25C6.65732 34.25 3.80732 32.25 3.80732 28.35V28.2H7.55732V28.65C7.55732 30.2 8.33232 30.825 11.7323 30.825C14.7323 30.825 15.4323 30.375 15.4323 29.25C15.4323 28.225 14.8573 27.85 13.1323 27.55L8.43232 26.875C5.43232 26.4 3.65732 24.9 3.65732 22.175C3.65732 19.65 5.70732 17 11.3323 17C16.4823 17 18.8823 19.375 18.8823 22.9V23.05H15.1073V22.7C15.1073 21.1 14.2823 20.425 10.9573 20.425C8.25732 20.425 7.43232 20.95 7.43232 22.025C7.43232 23 7.98232 23.35 9.38232 23.6L14.0823 24.35C17.8323 24.95 19.1823 26.775 19.1823 29.075C19.1823 31.8 17.0573 34.25 11.7323 34.25ZM30.0345 34H26.2845V20.625H20.0595V17.25H36.2595V20.625H30.0345V34ZM41.354 34H37.604V17.25H46.854C50.979 17.25 53.329 19.075 53.329 22.275C53.329 25 51.754 26.625 48.604 26.925V27.125C50.104 27.525 50.679 28.325 51.304 29.5L53.729 34H49.379L47.079 29.65C46.404 28.35 45.779 27.925 43.829 27.925H41.354V34ZM41.354 20.625V25.1H46.829C48.604 25.1 49.404 24.6 49.404 22.85C49.404 21.2 48.604 20.625 46.829 20.625H41.354ZM63.4886 34.25C57.9636 34.25 54.5386 30.85 54.5386 25.625C54.5386 20.4 57.9636 17 63.4886 17C68.6886 17 72.0386 19.6 72.0386 23.85V24.225H67.8636V23.85C67.8636 21.65 66.6136 20.6 63.5636 20.6C59.8886 20.6 58.5136 21.9 58.5136 25.625C58.5136 29.35 59.8886 30.65 63.5636 30.65C66.6136 30.65 67.8636 29.6 67.8636 27.4V27.025H72.0386V27.4C72.0386 31.65 68.7136 34.25 63.4886 34.25ZM82.9886 34H79.2386V20.625H73.0136V17.25H89.2136V20.625H82.9886V34ZM94.3081 34H90.5581V17.25H99.8081C103.933 17.25 106.283 19.075 106.283 22.275C106.283 25 104.708 26.625 101.558 26.925V27.125C103.058 27.525 103.633 28.325 104.258 29.5L106.683 34H102.333L100.033 29.65C99.3581 28.35 98.7331 27.925 96.7831 27.925H94.3081V34ZM94.3081 20.625V25.1H99.7831C101.558 25.1 102.358 24.6 102.358 22.85C102.358 21.2 101.558 20.625 99.7831 20.625H94.3081Z" fill="white"/>
</svg>
